<?xml version="1.0" standalone="no"?>
<!DOCTYPE svg PUBLIC "-//W3C//DTD SVG 20010904//EN"
 "http://www.w3.org/TR/2001/REC-SVG-20010904/DTD/svg10.dtd">
<svg version="1.0" xmlns="http://www.w3.org/2000/svg"
 width="512.000000pt" height="512.000000pt" viewBox="0 0 512.000000 512.000000"
 preserveAspectRatio="xMidYMid meet">

<g transform="translate(0.000000,512.000000) scale(0.100000,-0.100000)"
fill="#ffffff" stroke="none">
<path d="M2330 5110 c-494 -48 -950 -230 -1350 -538 -195 -150 -448 -432 -594
-662 -63 -99 -186 -351 -230 -471 -49 -134 -102 -340 -128 -499 -31 -195 -31
-565 0 -760 26 -159 79 -365 128 -499 44 -120 167 -372 230 -471 204 -321 503
-620 824 -824 99 -63 351 -186 471 -230 234 -86 515 -141 774 -152 190 -9 278
7 415 73 79 38 108 59 180 132 93 93 142 174 179 293 73 239 3 507 -178 689
-123 122 -250 179 -448 202 -128 15 -161 27 -210 79 -105 109 -79 277 57 361
l35 22 1210 5 1210 5 47 28 c90 52 111 100 145 317 26 175 24 549 -5 730 -45
275 -116 498 -237 745 -132 269 -269 460 -489 681 -221 220 -412 357 -681 489
-246 121 -474 193 -740 235 -147 23 -475 34 -615 20z m285 -861 c144 -26 245
-121 281 -261 30 -115 -11 -255 -97 -333 -71 -64 -140 -90 -239 -90 -71 0 -94
4 -141 26 -155 73 -236 238 -195 397 39 153 149 245 327 271 3 1 32 -4 64 -10z
m-864 -421 c220 -101 271 -388 100 -559 -105 -104 -254 -132 -385 -71 -254
119 -278 458 -42 609 93 60 226 68 327 21z m1861 18 c277 -85 336 -453 98
-617 -68 -46 -117 -62 -200 -61 -190 1 -341 152 -342 342 -1 83 15 132 61 200
84 123 242 178 383 136z"/>
</g>
</svg>
